<svg fill="#ffffff" height="200px" width="200px" version="1.1" id="Layer_1" xmlns="http://www.w3.org/2000/svg" xmlns:xlink="http://www.w3.org/1999/xlink" viewBox="0 0 512 512" xml:space="preserve" stroke="#ffffff"><g id="SVGRepo_bgCarrier" stroke-width="0"></g><g id="SVGRepo_tracerCarrier" stroke-linecap="round" stroke-linejoin="round"></g><g id="SVGRepo_iconCarrier"> <g> <g> <path d="M503.125,196.032c-5.568-4.011-12.736-5.099-19.2-2.944L384,226.411v-13.077c0-11.776-9.557-21.333-21.333-21.333h-33.195 c7.339-12.608,11.861-27.051,11.861-42.667C341.333,102.293,303.061,64,256,64c-25.6,0-48.341,11.584-64,29.504 C176.341,75.584,153.6,64,128,64c-47.061,0-85.333,38.293-85.333,85.333c0,15.616,4.523,30.059,11.861,42.667H21.333 C9.557,192,0,201.557,0,213.333v213.333C0,438.443,9.557,448,21.333,448h341.333c11.776,0,21.333-9.557,21.333-21.333v-13.056 l99.925,33.301c2.197,0.725,4.48,1.088,6.741,1.088c4.416,0,8.789-1.365,12.459-4.032c5.589-4.011,8.875-10.453,8.875-17.301 V213.333C512,206.485,508.715,200.043,503.125,196.032z M128,106.667c23.531,0,42.667,19.136,42.667,42.667 C170.667,172.864,151.531,192,128,192c-23.531,0-42.667-19.136-42.667-42.667C85.333,125.803,104.469,106.667,128,106.667z M85.333,298.667c0-11.776,9.557-21.333,21.333-21.333H192c11.776,0,21.333,9.557,21.333,21.333S203.776,320,192,320h-85.333 C94.891,320,85.333,310.443,85.333,298.667z M277.333,384H192c-11.776,0-21.333-9.557-21.333-21.333s9.557-21.333,21.333-21.333 h85.333c11.776,0,21.333,9.557,21.333,21.333S289.109,384,277.333,384z M256,192c-23.531,0-42.667-19.136-42.667-42.667 c0-23.531,19.136-42.667,42.667-42.667s42.667,19.136,42.667,42.667C298.667,172.864,279.531,192,256,192z M469.333,397.077 L384,368.64v-97.259l85.333-28.459V397.077z"></path> </g> </g> </g></svg>