<svg xmlns="http://www.w3.org/2000/svg" enable-background="new 0 0 24 24" viewBox="0 0 24 24" id="write"><g fill="#fdfdfd" class="color000000 svgShape"><path d="M5 17.8c.1 0 .1 0 .2 0l2.3-.4c1-.2 1.9-.7 2.6-1.4l8-7.9c0 0 0 0 0 0s0 0 0 0L19.1 7C19.7 6.5 20 5.7 20 4.9c0-.8-.3-1.5-.9-2.1-1.1-1.1-3-1.1-4.2 0l-1 1 0 0-8 7.9c-.7.7-1.2 1.6-1.4 2.6L4 16.6c-.1.3 0 .7.3.9C4.5 17.7 4.7 17.8 5 17.8zM16.3 4.3c.4-.4 1-.4 1.4 0C18 4.5 18 4.8 18 4.9c0 .3-.1.5-.3.7L17.4 6 16 4.6 16.3 4.3zM19 19H5c-.6 0-1 .4-1 1s.4 1 1 1h14c.6 0 1-.4 1-1S19.6 19 19 19z" fill="#fdfdfd" class="color000000 svgShape"></path></g></svg>